<svg width="188" height="30" viewBox="0 0 188 30" fill="none" xmlns="http://www.w3.org/2000/svg">
<g filter="url(#filter0_d_18_16)">
<path d="M8.31063 19.848C8.24663 20.168 8.05463 20.4453 7.73463 20.68C7.43596 20.8933 7.00929 21 6.45463 21C5.98529 21 5.61196 20.872 5.33463 20.616C5.07863 20.36 4.93996 20.0933 4.91863 19.816C5.04663 18.92 5.11063 17.576 5.11063 15.784C5.11063 14.7173 5.04663 13.0747 4.91863 10.856C4.76929 8.76533 4.69463 6.90933 4.69463 5.288C4.69463 4.41333 4.73729 3.51733 4.82263 2.6C4.82263 2.30133 4.99329 1.98133 5.33463 1.64C5.69729 1.29867 6.18796 1.08533 6.80663 1C8.83329 0.786666 11.3186 0.679998 14.2626 0.679998H15.2866C16.0546 0.679998 16.8013 0.818665 17.5266 1.096C18.2733 1.37333 18.6466 1.85333 18.6466 2.536C18.6466 2.984 18.54 3.336 18.3266 3.592C18.1133 3.848 17.7186 3.976 17.1426 3.976C16.8653 3.976 16.5453 3.95467 16.1826 3.912C15.82 3.86933 15.564 3.83733 15.4146 3.816C14.604 3.688 13.9746 3.624 13.5266 3.624C11.052 3.624 9.18529 3.79467 7.92663 4.136C7.92663 4.84 7.94796 5.98133 7.99063 7.56L8.02263 9.608C9.13196 9.608 10.124 9.56533 10.9986 9.48C11.8733 9.37333 12.3746 9.30933 12.5026 9.288C13.612 9.16 14.348 9.096 14.7106 9.096C15.2226 9.096 15.6493 9.21333 15.9906 9.448C16.3533 9.66133 16.5346 10.0027 16.5346 10.472C16.5346 11.5387 15.788 12.072 14.2946 12.072C13.932 12.072 13.612 12.0827 13.3346 12.104C13.0573 12.1253 12.8226 12.1467 12.6306 12.168C11.8626 12.2533 11.2546 12.296 10.8066 12.296C9.82529 12.296 8.99329 12.328 8.31063 12.392C8.31063 13.1813 8.34263 14.0133 8.40663 14.888C8.40663 15.1653 8.41729 15.592 8.43863 16.168C8.48129 16.744 8.50263 17.2667 8.50263 17.736C8.50263 18.1413 8.49196 18.5147 8.47063 18.856C8.44929 19.1973 8.39596 19.528 8.31063 19.848ZM22.7329 0.679998C23.1382 0.679998 23.5009 0.786666 23.8209 1C24.1622 1.21333 24.3649 1.58667 24.4289 2.12C24.6849 3.80533 24.8449 5.49067 24.9089 7.176C24.9942 8.84 25.0369 10.728 25.0369 12.84C25.0369 13.736 24.9622 15.368 24.8129 17.736C25.7515 17.8213 26.4769 17.864 26.9889 17.864C27.3515 17.864 28.1729 17.8107 29.4529 17.704C30.1995 17.5973 30.8502 17.544 31.4049 17.544C31.9169 17.544 32.3862 17.5973 32.8129 17.704C33.2395 17.7893 33.6769 17.9387 34.1249 18.152C34.5729 18.408 34.7969 18.8027 34.7969 19.336C34.7969 19.7627 34.6582 20.1467 34.3809 20.488C34.1249 20.8293 33.8155 21 33.4529 21C33.1969 21 32.7915 20.9573 32.2369 20.872C31.2342 20.7227 30.2742 20.648 29.3569 20.648C29.0582 20.648 28.7169 20.6693 28.3329 20.712C27.9702 20.7333 27.7035 20.744 27.5329 20.744C27.0209 20.808 26.5089 20.84 25.9969 20.84C24.9515 20.84 24.0129 20.7867 23.1809 20.68C22.7542 20.6373 22.3275 20.4773 21.9009 20.2C21.4742 19.9013 21.2609 19.4747 21.2609 18.92C21.2609 18.6 21.3035 17.7787 21.3889 16.456C21.5382 14.2587 21.6129 12.584 21.6129 11.432C21.6129 10.536 21.5702 9.59733 21.4849 8.616C21.3995 7.63467 21.3462 7.016 21.3249 6.76C21.1329 4.94667 21.0369 3.45333 21.0369 2.28C21.0369 1.72533 21.1649 1.32 21.4209 1.064C21.6982 0.807999 22.1355 0.679998 22.7329 0.679998ZM46.0571 0.647999C47.4865 0.647999 48.7878 0.829332 49.9611 1.192C51.1345 1.53333 52.0945 2.04533 52.8411 2.728C54.1851 3.944 55.1238 5.27733 55.6571 6.728C56.2118 8.15733 56.4891 9.992 56.4891 12.232C56.4891 12.7013 56.4251 13.128 56.2971 13.512C56.1905 13.896 56.0091 14.3867 55.7531 14.984C55.4331 15.6453 55.2411 16.168 55.1771 16.552C54.7505 17.2987 54.0465 18.0133 53.0651 18.696C52.1051 19.3787 51.0598 19.9333 49.9291 20.36C48.7985 20.7867 47.8065 21 46.9531 21C42.8358 21 39.9025 19.592 38.1531 16.776C37.6625 15.9867 37.2785 15.1653 37.0011 14.312C36.7451 13.4587 36.6171 12.6267 36.6171 11.816C36.6171 9.64 37.0011 7.752 37.7691 6.152C38.5585 4.53067 39.6465 3.272 41.0331 2.376C41.8651 1.88533 42.7291 1.48 43.6251 1.16C44.5425 0.818666 45.3531 0.647999 46.0571 0.647999ZM39.9451 11.912C39.9451 13.064 40.2011 14.0133 40.7131 14.76C41.2465 15.5067 42.0571 16.3173 43.1451 17.192C44.0411 17.5333 44.6491 17.7573 44.9691 17.864C45.2891 17.9493 45.6518 17.992 46.0571 17.992C48.2118 17.992 49.9291 17.4053 51.2091 16.232C52.4891 15.0587 53.1291 13.448 53.1291 11.4C53.1291 9.77867 52.9478 8.49867 52.5851 7.56C52.2225 6.62133 51.5718 5.77867 50.6331 5.032C50.1425 4.62667 49.5131 4.328 48.7451 4.136C47.9985 3.944 47.1878 3.848 46.3131 3.848C44.9905 3.848 43.8491 4.24267 42.8891 5.032C41.9291 5.8 41.1931 6.80267 40.6811 8.04C40.1905 9.27733 39.9451 10.568 39.9451 11.912ZM74.5566 9.544C74.5353 9.20267 74.5246 8.69067 74.5246 8.008V6.792C74.5246 5.98133 74.5033 5.37333 74.4606 4.968C74.418 4.62667 74.3966 3.74133 74.3966 2.312C74.3966 1.8 74.546 1.40533 74.8446 1.128C75.1646 0.829332 75.5913 0.679998 76.1246 0.679998C76.8073 0.679998 77.266 0.829332 77.5006 1.128C77.7353 1.42666 77.8526 1.91733 77.8526 2.6V3.816L77.8206 7.336C77.7993 8.01867 77.7886 9.04267 77.7886 10.408L77.8206 13.032C77.842 13.4373 77.8526 14.0027 77.8526 14.728C77.8526 15.304 77.874 16.1253 77.9166 17.192C77.9593 18.1733 77.9806 18.9093 77.9806 19.4C77.9806 19.8053 77.8633 20.1787 77.6286 20.52C77.4153 20.8613 77.1166 21.032 76.7326 21.032C75.2393 21.032 74.4926 20.5307 74.4926 19.528C74.4926 18.9733 74.514 18.3547 74.5566 17.672C74.5993 17.1813 74.6206 16.4347 74.6206 15.432C74.6206 14.728 74.5993 13.7147 74.5566 12.392C73.554 12.4773 71.826 12.52 69.3726 12.52C67.8366 12.52 66.642 12.52 65.7886 12.52C64.9353 12.4987 64.3166 12.4453 63.9326 12.36L63.9006 16.04C63.9006 16.2747 63.954 16.904 64.0606 17.928C64.1673 18.6107 64.2206 19.208 64.2206 19.72C64.2206 20.04 64.0286 20.3493 63.6446 20.648C63.282 20.9253 62.9406 21.064 62.6206 21.064C61.8526 21.064 61.33 20.8827 61.0526 20.52C60.7753 20.136 60.6366 19.56 60.6366 18.792L60.6046 16.264C60.5833 15.9653 60.5726 15.5493 60.5726 15.016C60.5726 14.2267 60.5513 13.1493 60.5086 11.784C60.466 10.5467 60.4446 9.65067 60.4446 9.096C60.4446 8.264 60.466 7.10133 60.5086 5.608C60.5513 4.2 60.5726 3.15466 60.5726 2.472C60.5726 1.78933 60.7433 1.33067 61.0846 1.096C61.426 0.861333 61.81 0.743999 62.2366 0.743999C63.4313 0.743999 64.0286 1.13867 64.0286 1.928C64.0286 3.336 63.9966 4.68 63.9326 5.96C63.89 7.58133 63.8686 8.76533 63.8686 9.512C64.4873 9.66133 65.138 9.75733 65.8206 9.8C66.5033 9.84267 67.4633 9.864 68.7006 9.864C71.218 9.864 73.17 9.75733 74.5566 9.544Z" fill="#00BD5E"/>
<path d="M86.4409 19.24C86.4409 19.7733 86.2275 20.2747 85.8009 20.744C85.3742 21.192 84.9049 21.416 84.3929 21.416C83.7955 21.416 83.2515 21.256 82.7609 20.936C82.2702 20.5947 82.0249 20.168 82.0249 19.656C82.0249 18.8453 82.1742 18.248 82.4729 17.864C82.7929 17.48 83.2622 17.288 83.8809 17.288C84.6062 17.288 85.2142 17.4693 85.7049 17.832C86.1955 18.1733 86.4409 18.6427 86.4409 19.24ZM104.844 15.208C104.844 16.2107 104.609 17.0747 104.14 17.8C103.692 18.504 102.945 19.1547 101.9 19.752C101.196 20.1787 100.375 20.4987 99.4359 20.712C98.4972 20.9253 97.5479 21.032 96.5879 21.032C95.6065 21.032 94.3905 20.712 92.9399 20.072C91.8945 19.56 91.0625 18.952 90.4439 18.248C89.8465 17.544 89.5479 16.776 89.5479 15.944C89.5479 15.368 89.6759 14.952 89.9319 14.696C90.1879 14.4187 90.6039 14.28 91.1799 14.28C91.4785 14.28 91.7879 14.408 92.1079 14.664C92.4279 14.8987 92.6199 15.1333 92.6839 15.368C92.9825 16.2427 93.5052 16.9147 94.2519 17.384C94.9985 17.832 95.9265 18.056 97.0359 18.056C98.3159 18.056 99.3825 17.8213 100.236 17.352C101.111 16.8827 101.548 16.2533 101.548 15.464C101.548 14.696 101.079 14.0133 100.14 13.416C99.2012 12.8187 98.2412 12.4027 97.2599 12.168C95.8519 11.784 94.6039 11.3253 93.5159 10.792C92.3852 10.2373 91.5425 9.55467 90.9879 8.744C90.4332 7.93333 90.1559 7.08 90.1559 6.184C90.1559 5.352 90.4439 4.50933 91.0199 3.656C91.5959 2.78133 92.2785 2.152 93.0679 1.768C93.4945 1.55467 94.2199 1.33067 95.2439 1.096C96.2892 0.84 97.0465 0.712 97.5159 0.712C98.1345 0.712 98.8172 0.786666 99.5639 0.935999C100.311 1.08533 100.919 1.29867 101.388 1.576C102.327 2.10933 103.02 2.58933 103.468 3.016C103.916 3.44267 104.14 3.976 104.14 4.616C104.14 5 103.991 5.34133 103.692 5.64C103.415 5.93867 102.924 6.088 102.22 6.088C102.049 6.088 101.879 6.01333 101.708 5.864C101.537 5.71467 101.324 5.49067 101.068 5.192C100.727 4.744 100.396 4.44533 100.076 4.296C99.7559 4.18933 99.2865 4.072 98.6679 3.944C98.0705 3.816 97.5372 3.752 97.0679 3.752C96.5559 3.752 96.0225 3.85867 95.4679 4.072C94.9132 4.28533 94.4439 4.59467 94.0599 5C93.6972 5.384 93.5159 5.832 93.5159 6.344C93.5159 6.77067 93.7079 7.144 94.0919 7.464C94.4972 7.76267 94.9772 8.008 95.5319 8.2C96.1719 8.456 96.8652 8.68 97.6119 8.872C98.5932 9.17067 99.3932 9.448 100.012 9.704C100.652 9.93867 101.271 10.2373 101.868 10.6C102.913 11.2187 103.671 11.8587 104.14 12.52C104.609 13.16 104.844 14.056 104.844 15.208ZM106.493 2.344C106.493 1.42667 107.165 0.967999 108.509 0.967999C109.085 0.967999 110.183 0.989332 111.805 1.032C113.597 1.11733 114.951 1.16 115.869 1.16C116.615 1.16 117.522 1.11733 118.589 1.032C119.314 0.989332 119.773 0.967999 119.965 0.967999C121.138 1.01067 122.13 1.224 122.941 1.608C123.175 1.71467 123.367 1.84267 123.517 1.992C123.666 2.14133 123.741 2.38667 123.741 2.728C123.741 3.19733 123.591 3.60267 123.293 3.944C122.994 4.264 122.631 4.424 122.205 4.424C121.735 4.424 121.053 4.36 120.157 4.232C119.367 4.08267 118.674 4.008 118.077 4.008C117.501 4.008 117.063 4.01867 116.765 4.04C116.701 4.744 116.669 6.42933 116.669 9.096C116.669 12.2747 116.765 15.496 116.957 18.76L117.021 19.688C117.021 20.5627 116.519 21 115.517 21C114.727 21 114.194 20.8187 113.917 20.456C113.639 20.072 113.501 19.496 113.501 18.728C113.501 17.2133 113.458 15.3253 113.373 13.064C113.287 11.1867 113.245 9.85333 113.245 9.064C113.245 8.53067 113.309 6.89867 113.437 4.168L109.693 4.2C108.498 4.2 107.666 4.09333 107.197 3.88C106.727 3.64533 106.493 3.13333 106.493 2.344ZM136.11 21.032C134.702 21.032 133.411 20.8613 132.238 20.52C131.065 20.1573 130.105 19.6347 129.358 18.952C127.993 17.736 127.033 16.4133 126.478 14.984C125.945 13.5333 125.678 11.688 125.678 9.448C125.678 8.97867 125.742 8.54133 125.87 8.136C126.019 7.70933 126.211 7.24 126.446 6.728C126.51 6.57867 126.606 6.344 126.734 6.024C126.883 5.68267 126.979 5.37333 127.022 5.096C127.427 4.34933 128.11 3.63467 129.07 2.952C130.051 2.26933 131.107 1.72533 132.238 1.32C133.369 0.893332 134.361 0.679998 135.214 0.679998C139.331 0.679998 142.275 2.088 144.046 4.904C145.049 6.54667 145.55 8.2 145.55 9.864C145.55 12.0187 145.155 13.9067 144.366 15.528C143.598 17.1493 142.531 18.408 141.166 19.304C140.313 19.816 139.438 20.232 138.542 20.552C137.646 20.872 136.835 21.032 136.11 21.032ZM129.006 11.816C128.985 12.9893 129.23 13.96 129.742 14.728C130.275 15.4747 131.107 16.296 132.238 17.192C133.091 17.512 133.689 17.7253 134.03 17.832C134.371 17.9387 134.745 17.992 135.15 17.992C136.537 17.992 137.763 17.704 138.83 17.128C139.897 16.552 140.718 15.7627 141.294 14.76C141.891 13.7573 142.19 12.6373 142.19 11.4C142.19 9.77867 142.009 8.49867 141.646 7.56C141.283 6.62133 140.633 5.77867 139.694 5.032C139.203 4.62667 138.574 4.328 137.806 4.136C137.059 3.944 136.259 3.848 135.406 3.848C133.358 3.848 131.769 4.57333 130.638 6.024C129.529 7.45333 128.985 9.384 129.006 11.816ZM160.228 12.52C162.084 15.6773 163.823 18.184 165.444 20.04C165.615 20.2107 165.7 20.4027 165.7 20.616C165.7 20.8933 165.529 21.128 165.188 21.32C164.847 21.5333 164.452 21.64 164.004 21.64C163.343 21.64 162.628 21.3627 161.86 20.808C161.305 20.424 160.793 19.8587 160.324 19.112C159.855 18.344 159.321 17.3627 158.724 16.168L158.18 15.08C157.625 14.0773 157.295 13.4907 157.188 13.32C156.719 13.512 156.175 13.6507 155.556 13.736C154.937 13.8213 154.18 13.896 153.284 13.96C153.327 16.6907 153.348 18.6 153.348 19.688C153.348 20.0933 153.199 20.424 152.9 20.68C152.601 20.9147 152.228 21.032 151.78 21.032C151.225 21.032 150.799 20.808 150.5 20.36C150.201 19.7627 150.052 18.8347 150.052 17.576L150.084 15.24C150.084 13.7893 150.116 12.4133 150.18 11.112C150.223 9.40533 150.244 8.14667 150.244 7.336L150.276 5.704C150.276 5.21333 150.244 4.712 150.18 4.2C149.839 4.09333 149.54 3.93333 149.284 3.72C149.028 3.48533 148.9 3.22933 148.9 2.952C148.9 2.41867 149.092 2.01333 149.476 1.736C149.881 1.43733 150.383 1.24533 150.98 1.16C152.708 0.882666 154.393 0.743999 156.036 0.743999C158.831 0.743999 161.145 1.26667 162.98 2.312C164.815 3.35733 165.732 4.94667 165.732 7.08C165.732 7.74133 165.583 8.38133 165.284 9C165.007 9.59733 164.623 10.0987 164.132 10.504C162.852 11.5067 161.551 12.1787 160.228 12.52ZM162.34 6.984C162.34 5.96 161.796 5.128 160.708 4.488C159.641 3.82667 158.105 3.496 156.1 3.496C155.225 3.496 154.329 3.60267 153.412 3.816C153.455 4.584 153.476 5.128 153.476 5.448C153.476 6.088 153.433 7.00533 153.348 8.2C153.305 9.39467 153.284 10.3547 153.284 11.08C154.713 11.08 156.079 10.888 157.38 10.504C158.319 10.2267 159.108 9.96 159.748 9.704C160.388 9.448 160.975 9.096 161.508 8.648C162.063 8.17867 162.34 7.624 162.34 6.984ZM182.411 16.936C182.816 16.936 183.115 17.096 183.307 17.416C183.52 17.7147 183.627 18.0453 183.627 18.408C183.627 18.856 183.552 19.176 183.403 19.368C183.275 19.5387 183.008 19.72 182.603 19.912C181.749 20.3173 180.789 20.6053 179.723 20.776C178.677 20.9467 177.365 21.032 175.787 21.032C173.888 21.032 172.427 20.712 171.403 20.072C170.4 19.4107 169.739 18.5893 169.419 17.608C169.099 16.6267 168.939 15.4853 168.939 14.184V12.168C168.939 10.7813 168.971 9.448 169.035 8.168C169.12 6.888 169.28 5.39467 169.515 3.688C169.664 2.664 170.069 1.928 170.731 1.48C171.392 1.01067 172.117 0.775999 172.907 0.775999C173.76 0.775999 174.933 0.754666 176.427 0.712L179.211 0.679998C180.341 0.679998 181.173 0.711999 181.707 0.775999C182.347 0.903999 182.816 1.05333 183.115 1.224C183.435 1.37333 183.595 1.64 183.595 2.024C183.595 2.45067 183.445 2.86667 183.147 3.272C182.869 3.67733 182.443 3.88 181.867 3.88C181.205 3.88 180.256 3.83733 179.019 3.752C177.781 3.66667 176.853 3.624 176.235 3.624C175.467 3.624 174.848 3.656 174.379 3.72C173.781 3.76267 173.355 3.83733 173.099 3.944C172.843 4.05067 172.693 4.232 172.651 4.488C172.352 6.68533 172.203 8.30667 172.203 9.352C172.672 9.416 173.173 9.448 173.707 9.448C174.389 9.448 175.531 9.37333 177.131 9.224C178.304 9.11733 179.275 9.064 180.043 9.064C180.533 9.064 180.896 9.14933 181.131 9.32C181.365 9.49067 181.483 9.72533 181.483 10.024C181.483 10.4933 181.365 10.856 181.131 11.112C180.896 11.368 180.469 11.56 179.851 11.688C179.104 11.8373 178.133 11.9547 176.939 12.04C175.765 12.1253 174.645 12.168 173.579 12.168C173.173 12.168 172.672 12.1467 172.075 12.104C172.075 13.512 172.139 14.6213 172.267 15.432C172.416 16.2427 172.715 16.872 173.163 17.32C173.632 17.768 174.336 17.992 175.275 17.992C177.387 17.992 179.072 17.8 180.331 17.416C181.227 17.096 181.92 16.936 182.411 16.936Z" fill="#333333"/>
</g>
<defs>
<filter id="filter0_d_18_16" x="0.694641" y="0.647949" width="186.932" height="28.9921" filterUnits="userSpaceOnUse" color-interpolation-filters="sRGB">
<feFlood flood-opacity="0" result="BackgroundImageFix"/>
<feColorMatrix in="SourceAlpha" type="matrix" values="0 0 0 0 0 0 0 0 0 0 0 0 0 0 0 0 0 0 127 0" result="hardAlpha"/>
<feOffset dy="4"/>
<feGaussianBlur stdDeviation="2"/>
<feComposite in2="hardAlpha" operator="out"/>
<feColorMatrix type="matrix" values="0 0 0 0 0 0 0 0 0 0 0 0 0 0 0 0 0 0 0.25 0"/>
<feBlend mode="normal" in2="BackgroundImageFix" result="effect1_dropShadow_18_16"/>
<feBlend mode="normal" in="SourceGraphic" in2="effect1_dropShadow_18_16" result="shape"/>
</filter>
</defs>
</svg>
